<?xml version="1.0" encoding="UTF-8"?>
<svg version="1.1" id="Layer_1" xmlns="http://www.w3.org/2000/svg" xmlns:xlink="http://www.w3.org/1999/xlink" x="0px" y="0px"
	 viewBox="0 0 4236 500" style="enable-background:new 0 0 4236 500;" xml:space="preserve">
    <path fill="#FF6B0B" d="M5.4,1.6c6.3-1.1,12.8-0.4,19.3-0.4h317.4c3.7-0.4,6.9,1.1,9.1,3.9c41.8,41.8,83.5,83.9,125.3,125.8 c2.6,2.8,6.5,6.3,4.3,10.4c-1.5,4.1-6.3,3.9-9.8,3.9H141.6v324.4c0.7,4.6-2.8,9.8-8,8.9c-5.2-3-8.9-7.6-13.2-11.7 c-33.8-33.4-67.9-66.8-101.7-100.2c-5.6-5.6-11.9-10.8-16.7-17.1c-1.5-6.7-0.7-13.7-0.9-20.4V9.6C1.3,6.4,1.9,2.5,5.4,1.6z"></path>
    <path fill="#343A40" d="M1762.5,181.4c49.7-11.7,104.1,3.3,142.2,37.1c3,2.4,6.3,7.2,3.3,10.8c-9.5,11.7-20.4,22.1-30.1,33.6 c-3.5,3.7-7.4,9.3-13.2,7.8c-4.3-1.5-7.6-5-11.5-7.6c-17.3-13.2-40.1-17.8-61.4-15.2c-25.6,3.3-49,18.9-62.7,40.5 c-14.3,22.3-18.4,51.2-10.2,76.3c7.8,24.9,27.3,46,51.8,55.5c23,9.3,49.2,7.8,72.2-0.9v-25.4c-10.2-0.2-20.2,0.7-30.1-0.4 c-5.9-1.3-5.2-8.5-5.4-13c0.4-13.4-0.7-27.1,0.4-40.5c0.7-5.4,6.9-5.9,11.1-5.9c28.6,0.2,57.5-0.2,86.1,0.2 c5.4-0.2,7.8,5.4,7.2,10c0.2,38.6,0.7,77.2,0.7,115.6c0.4,5.2-2.4,9.8-7.2,11.7c-34.3,17.6-72.8,26.9-111.4,25.8 c-44.7-1.3-88.2-22.5-116.9-56.8c-44.7-52.3-49.9-134-12.4-191.4C1687,215.2,1722.8,190.3,1762.5,181.4L1762.5,181.4z M2695,178.8 c28.6-3.7,58.5-0.2,85.2,11.5c15.6,6.9,29.9,16.3,42.9,27.3c4.8,3.3,5.2,10.8,1.1,15c-4.3,5-8.9,10-14.3,13.9 c-8.5-2.4-14.3-9.8-21.7-13.9c-25.6-16.5-56.8-26.2-87.4-21.2c-41.6,5.4-78.5,34.3-95.4,72.4c-19.9,42.9-13.9,96.7,15.4,134 c23.6,31.4,63.1,50.1,102.3,47.9c25.6-0.4,49.9-10.8,70-26.2c5.2-3.3,9.8-8.7,16.3-9.1c7.2,3.5,13,9.1,18.6,14.7 c3.3,7.2-4.1,12.1-8.9,16.3c-31.7,27.5-75,39.5-116.4,35.3c-44.4-3.9-86.7-27.5-113.2-63.3c-21.5-28.4-32.3-64.2-31.7-99.7 c-0.4-41.6,17.1-82.6,47-111.4C2629.5,198.5,2661.4,183.1,2695,178.8L2695,178.8z M3166.1,186.1c-0.7-10.4,11.7-8.7,18.4-8.7 c67,83.9,134.2,167.8,201.4,251.5V192.9c-0.2-3.9,0.9-9.3,5.6-10c7.2-0.9,14.5-1.1,21.5,0.2c5,1.7,4.1,7.8,4.6,11.9 c-0.2,91.5,0,182.8,0,274.3c-0.2,8.2,0.7,16.5-0.7,24.7c-2.4,6.5-10.4,4.3-15.6,5c-68.1-85.4-136.4-170.4-204.7-255.6v239.8 c0,3.9-0.4,9.3-5.2,10.4c-7.2,1.1-14.3,1.1-21.5,0c-5.6-1.5-5-8.2-5-12.8C3165.7,382.4,3165.7,284.1,3166.1,186.1L3166.1,186.1z  M652.8,186.6c1.7-4.3,6.9-4.1,10.8-4.1h176.9c4.3-0.2,10.6,0.4,11.3,5.9c1.1,15.8,0.2,31.9,0.4,47.7c0.4,4.8-1.3,11.1-7.2,10.8 c-41.2,0.7-82.4-0.2-123.6,0.4v64.6h98.7c4.3-0.2,10.2,0.9,10.6,6.1c0.9,16.5,0.2,33.2,0.2,49.7c0.7,5-3.3,9.8-8.7,8.9 c-33.6,0.4-67.4,0-101,0.2V483c0.7,4.8-2.2,10.6-7.8,10c-18,0.2-36.2,0.4-54.4-0.2c-5,0-6.7-5.6-6.3-9.5L652.8,186.6L652.8,186.6z  M912.5,197.4c-0.4-6.1,1.1-15.8,9.3-15c44.7-0.2,89.3,0,134,0c35.8,0,70.2,21.7,86.1,53.8c13.9,27.3,13.9,61.8-1.7,88.5 c-11.9,20.8-32.1,36-54,44.9c19.5,36.9,39.2,73.5,59,110.4c2.8,4.3,3.9,11.1-1.1,14.3c-4.1,2-8.9,1.1-13.2,1.5 c-17.3-0.4-34.7,0.4-52-0.4c-4.3,0-6.1-3.9-7.8-7.2c-18.9-38.6-37.9-77-56.8-115.6h-30.6V483c0.4,4.8-1.3,11.1-6.9,10.8 c-18.2,0.7-36.4,0.2-54.6,0.2c-5.2,0.7-10.2-3.3-9.3-8.9C912.3,389.3,912.5,293.2,912.5,197.4L912.5,197.4z M983.4,245.5v69.6 h63.1c24.7,2,44.7-27.3,33.6-49.7c-5.4-12.1-18.2-20.4-31.4-19.9C1027,245.3,1005.3,245.5,983.4,245.5L983.4,245.5z M1223.7,192.9 c-0.9-5.4,2.6-11.3,8.7-10.4c59.6-0.2,119.5,0,179.1-0.2c3.9,0.2,9.3-0.2,11.3,3.9c1.7,8,0.7,16.5,0.9,24.7 c-0.2,10.6,0.9,21.2-0.7,31.7c-2,4.8-7.4,4.3-11.5,4.6c-39.7,0-79.6-0.2-119.2,0v55.7h94.3c3.7,0,7.6,0,11.3,0.9 c5.4,2.4,3.9,9.1,4.3,13.9c-0.4,14.3,0.2,28.6-0.2,42.9c0.2,4.6-4.1,7.6-8.5,7.2c-33.6,0.2-67.4,0-101,0.2v59.8h121.4 c4.8-0.7,10.4,2.2,10,7.8c0.2,16.5,0.4,33.2,0,49.7c0.2,5.4-5.4,7.8-10,7.2c-60.3,0-120.8,0.2-181-0.2c-5.4,0.9-9.3-3.9-8.7-9.1 C1223.7,386.5,1223.7,289.6,1223.7,192.9L1223.7,192.9z M1505.3,182.9c18.4-1.3,37.3-0.4,55.7-0.4c5.9-0.9,9.3,5,8.5,10.4V483 c0.4,4.3-1.1,10.6-6.5,10.8c-18.2,0.7-36.4,0.2-54.4,0.2c-4.8,0.7-8.9-3.7-8.2-8.5c-0.2-96.7,0-193.6-0.2-290.3 C1500.3,190.7,1499.9,184.2,1505.3,182.9L1505.3,182.9z M1989,192.9c-0.7-4.6,1.5-10.6,7.2-10.4c18-0.4,36-0.4,54.2,0 c5.6-0.2,7.8,5.6,7.4,10.4v109.3h126.6c0.2-37.3-0.2-74.6,0.2-111.7c-0.7-5,4.1-8.5,8.7-8c17.3,0,34.7-0.2,52,0.2 c5.6-0.4,8.2,5.6,7.6,10.4v290.1c0.4,4.8-1.5,11.3-7.4,10.8c-18,0.4-36.2,0.4-54.4,0c-5.6,0-7.4-6.1-6.7-10.6V368.7h-126.6 c0,38.8,0.2,77.8-0.2,116.6c0.9,5.2-3.9,9.3-9.1,8.7c-17.3,0-34.9,0.4-52.5-0.2c-5.9,0.2-7.6-6.1-6.9-10.8 C1989,386.3,1988.8,289.6,1989,192.9L1989,192.9z M2900.1,192.9c-0.9-5.6,2.8-11.3,8.9-10.4c58.1,0,116.4-0.2,174.5,0 c6.9-0.4,8.2,7.4,7.8,12.8c0.2,5.9,0.4,15.4-7.8,15.4c-49.9,0.4-99.7,0-149.6,0.2v109.3c42.3,0.2,84.8-0.2,127.1,0.2 c10-0.7,8.7,11.3,8.5,18c0.7,5.2-2.2,11.7-8.5,10.8c-42.3,0.4-84.8,0-127.1,0.2v114h147.4c5-0.7,10.4,2.8,9.8,8.5 c0,6.9,2.8,20.2-7.6,20.6c-58.1,0.2-116.4,0.2-174.5,0c-5.4,0.9-9.8-3.9-8.9-9.1C2899.9,386.5,2900.1,289.6,2900.1,192.9 L2900.1,192.9z M3482.2,186.1c2.2-4.1,7.2-3.7,11.3-3.9H3675c3.7,0,8.7,0,10.4,4.1c1.3,6.5,1.3,13.2,0.2,19.7 c-1.1,4.8-6.7,5.4-10.6,5.2h-74.4v271.5c0,3.9-0.4,9.5-5.2,10.4c-7.4,1.1-15.2,1.1-22.5,0c-5-0.9-5.6-6.5-5.4-10.6V211.3h-74.2 c-4.3,0-10.6,0.2-11.7-5.2C3480.9,199.8,3480.7,192.6,3482.2,186.1L3482.2,186.1z M3748.9,188.3c-0.2-6.3,7.4-6.1,11.9-6.1 c57.5,0.2,114.7-0.2,172.2,0.2c7.8,0,7.6,9.3,7.4,15c0.2,5.2-0.4,13-7.4,13c-50.1,0.7-100.2,0-150,0.2v109.3h122.9 c4.1,0.2,10.2-0.4,11.7,4.6c1.1,6.7,1.1,13.4,0,20.2c-2,4.8-7.6,4.3-11.7,4.6H3783v114c50.1,0.2,100-0.2,150,0.2 c8.9,0.2,7.2,11.3,7.4,17.3c0.9,5.9-2.4,12.6-9.3,11.5c-57.5,0.2-115.1,0-172.6,0c-5.4,0.9-10.4-3.7-9.3-9.1 C3748.9,385,3749.3,286.7,3748.9,188.3L3748.9,188.3z M4014.3,187.4c2.2-2.8,5-5.6,9.1-5.2c37.9-0.2,75.7,0,113.6,0 c23.4-0.2,46.6,8.2,64.4,23.2c28.2,23,40.8,63.3,29.7,98.2c-8.9,30.1-33.8,52.9-62.2,64.8c19.9,36.9,39.7,73.9,59.4,111 c3,4.6,2.8,12.4-3,14.5c-9.1,1.1-18.4,0.9-27.5,0.2c-4.6,0.2-6.3-4.6-8-7.8c-18.4-38.2-37.1-76.1-55.7-114h-85.4v108.2 c-0.2,4.6,0.4,11.1-5,12.8c-8,1.1-16.3,1.3-24.1-0.2c-5-2.2-3.9-8-4.3-12.4c0.2-94.5,0-188.8,0-283.4 C4015.8,194.2,4014.9,190.7,4014.3,187.4L4014.3,187.4z M4049.2,213.9v127.7c31,0.2,61.8-0.4,92.8,0.4 c31.7-2.2,58.3-31.4,58.8-63.1c1.5-33.4-28-63.7-61.1-65C4109.3,213.9,4079.1,214.1,4049.2,213.9L4049.2,213.9z M367.5,192.9 c-0.4-4.8,3.5-9.1,8.2-8.7c31.7-0.4,63.5,0,95.2-0.2c3.9,0.2,8-0.4,11.5,1.5c3.9,2.6,3,8,3.5,11.9c-0.2,93.7,0,187.5,0,281.2 c0,3.7-0.7,8.7-5,10c-6.9,1.3-14.1,0.7-21,0.7H194.5c-3.5-0.2-7.6,0-9.5-3.5c-2-3.7-1.3-8-1.5-11.9c0.4-33.2-0.4-66.3,0.2-99.5 c-0.2-5.9,6.3-7.8,11.1-7.4h172.6C367.5,308.9,367.3,250.7,367.5,192.9z M2309.9,190.7c-0.4-5.6,5.2-8.2,10-7.6h192.5 c5-0.7,11.3,1.7,10.8,7.6c0.4,16.5,0.4,33.2,0,49.7c0.2,4.6-4.1,7.8-8.5,7.4c-21,0.4-42.1,0-63.1,0.2 c-0.2,79.1,0.2,158.3-0.2,237.2c0.9,5.4-4.1,9.3-9.3,8.7c-18,0-36,0.4-54-0.2c-5.4-0.4-6.3-6.5-6.1-10.6v-235 c-21.5-0.2-43.1,0.2-64.6-0.2c-4.3,0.2-8-3.3-7.8-7.4C2309.7,223.9,2309.7,207.4,2309.9,190.7L2309.9,190.7z"></path>
</svg>