<svg xmlns="http://www.w3.org/2000/svg" xmlns:xlink="http://www.w3.org/1999/xlink" width="207" height="35" viewBox="0 0 207 35">
    <defs>
        <path id="prefix__a" d="M0 0.14L28.571 0.14 28.571 34.99 0 34.99z"/>
    </defs>
    <g fill="none" fill-rule="evenodd">
        <mask id="prefix__b" fill="#fff">
            <use xlink:href="#prefix__a"/>
        </mask>
        <path fill="#82BC5E" d="M14.243 18.281L0 0.14 14.243 35 28.571 0.14 14.243 18.281" mask="url(#prefix__b)"/>
        <path fill="#FFF" d="M18.402 6.344c0-2.292-1.862-4.156-4.16-4.156-2.296 0-4.159 1.864-4.159 4.156 0 2.298 1.863 4.16 4.159 4.16 2.298 0 4.16-1.862 4.16-4.16M32.814 25.565L32.814 8.533 36.542 8.533 41.836 21.721 47.061 8.533 50.767 8.533 50.767 25.565 48.258 25.565 48.326 11.203 42.688 25.565 40.915 25.565 35.277 11.203 35.346 25.565 32.814 25.565M63.306 18.2c-.115-1.658-1.772-3.522-4.143-3.476-2.44 0-4.028 1.772-4.143 3.475h8.286zm-8.332 1.864c.115 2.531 2.325 3.82 4.212 3.82 1.68 0 2.923-.805 3.613-2.117h2.486c-.598 1.381-1.473 2.417-2.532 3.107-1.058.714-2.301 1.059-3.567 1.059-4.097 0-6.628-3.291-6.628-6.606 0-3.59 2.807-6.651 6.605-6.651 1.795 0 3.43.667 4.626 1.84 1.473 1.497 2.095 3.453 1.887 5.548H54.974zM68.159 14.908L65.903 14.908 65.903 13.044 68.159 13.044 68.159 8.533 70.553 8.533 70.553 13.044 72.969 13.044 72.969 14.908 70.553 14.908 70.553 25.565 68.159 25.565 68.159 14.908M75.477 19.35c.023 1.864 1.335 4.35 4.373 4.35 1.91 0 3.268-1.058 3.89-2.486.276-.575.414-1.22.437-1.864.023-.644-.092-1.289-.368-1.864-.598-1.45-2.002-2.578-4.005-2.578-2.623 0-4.327 2.072-4.327 4.42v.022zm11.07 6.215h-2.393v-2.187c-.874 1.68-2.67 2.555-4.65 2.555-4.027 0-6.42-3.13-6.42-6.629 0-3.82 2.785-6.628 6.42-6.628 2.487 0 4.075 1.38 4.65 2.577v-2.21h2.394v12.522zM99.893 19.281c0-2.44-1.864-4.373-4.327-4.373-2.578 0-4.327 2.003-4.327 4.373 0 2.394 1.704 4.42 4.258 4.42 2.854 0 4.373-2.233 4.396-4.397v-.023zM88.938 8.533h2.393v6.514c1.151-1.635 2.992-2.348 4.603-2.371 3.246 0 6.353 2.416 6.353 6.582 0 4.028-2.854 6.675-6.445 6.675-2.14 0-3.797-1.036-4.603-2.532v2.164h-2.301V8.533zM106.013 19.327c0 2.486 1.888 4.35 4.281 4.35 2.394 0 4.281-1.864 4.281-4.373 0-2.509-1.887-4.373-4.28-4.373-2.394 0-4.282 1.864-4.282 4.373v.023zm-2.393-.046c0-3.337 2.462-6.605 6.674-6.605s6.675 3.268 6.675 6.628c0 3.36-2.463 6.606-6.675 6.606s-6.674-3.246-6.674-6.606v-.023zM118.83 25.565L121.224 25.565 121.224 8.533 118.83 8.533zM123.801 25.565h2.394V13.044H123.8v12.52zm0-14.5h2.394V8.532H123.8v2.531zM141.108 21.169c-.76 2.716-3.223 4.764-6.353 4.764-4.097 0-6.697-3.153-6.697-6.629 0-3.705 2.83-6.628 6.582-6.628 2.993 0 5.685 1.84 6.468 4.856h-2.463c-.644-1.68-2.21-2.624-3.913-2.624-1.266-.023-2.186.391-3.061 1.22-.736.736-1.22 1.91-1.22 3.176 0 2.578 1.887 4.396 4.281 4.396 2.095-.023 3.407-1.288 3.913-2.531h2.463"/>
        <path fill="#7DC053" d="M143.673 8.533L146.389 8.533 146.389 23.171 152.396 23.171 152.396 25.565 143.673 25.565 143.673 8.533M153.96 25.565h2.394V13.044h-2.394v12.52zm0-14.5h2.394V8.532h-2.394v2.531zM164.701 25.565L162.308 25.565 157.521 13.044 160.029 13.044 163.505 22.573 166.98 13.044 169.489 13.044 164.701 25.565M170.764 25.565h2.394V13.044h-2.394v12.52zm0-14.5h2.394V8.532h-2.394v2.531zM175.318 13.044h2.256v1.933c.598-1.289 2.003-2.324 4.236-2.301 4.004.046 5.063 2.946 5.063 5.547v7.342h-2.417v-6.79c0-2.256-.874-3.867-3.314-3.844-2.347.023-3.43 1.496-3.43 3.66v6.974h-2.394V13.044M191.081 19.304c0 2.348 1.68 4.396 4.328 4.396 1.266 0 2.324-.483 3.084-1.266.736-.759 1.197-1.84 1.22-3.06 0-.99-.322-2.118-1.013-2.97-.69-.874-1.772-1.473-3.29-1.473-2.372 0-4.329 1.772-4.329 4.35v.023zm10.98 4.81c0 2.187-.553 3.591-1.473 4.65-1.151 1.335-3.107 2.278-5.27 2.278-3.545 0-5.618-2.071-6.215-4.166h2.762c.275.553.759 1.06 1.38 1.45.76.507 1.612.668 2.164.668 2.094 0 4.257-1.542 4.257-4.35v-1.289c-.736 1.404-2.255 2.578-4.51 2.578-3.752 0-6.468-2.854-6.468-6.583 0-3.912 2.832-6.674 6.468-6.674 2.094 0 3.82 1.104 4.51 2.485v-2.117h2.395v11.07z"/>
        <path fill="#6BA14E" d="M204.45 11.882c-.821 0-1.469-.67-1.469-1.488 0-.807.633-1.488 1.47-1.488.831 0 1.47.68 1.47 1.488 0 .827-.658 1.488-1.47 1.488zm.005-3.346c-1.045 0-1.862.846-1.862 1.858 0 1.017.822 1.858 1.862 1.858 1.012 0 1.853-.827 1.853-1.858 0-1.017-.822-1.858-1.853-1.858z"/>
        <path fill="#82BC5E" d="M204.463 10.293h-.402v-.54h.447c.164 0 .37.022.392.228 0 .312-.299.312-.437.312zm.737.642c-.01-.25-.059-.41-.326-.486v-.009c.262-.062.36-.259.36-.473 0-.53-.566-.53-.685-.53h-.822v1.948h.334v-.78h.398c.334.027.397.111.41.42.01.245.022.302.058.36h.335c-.045-.08-.045-.12-.062-.45z"/>
    </g>
</svg>
