<?xml version="1.0" encoding="UTF-8"?>
<svg xmlns="http://www.w3.org/2000/svg" xmlns:xlink="http://www.w3.org/1999/xlink" width="161pt" height="55pt" viewBox="0 0 161 55" version="1.1">
<g id="surface1">
<path style=" stroke:none;fill-rule:nonzero;fill:rgb(96.078431%,65.882353%,0%);fill-opacity:1;" d="M 8.917969 38.199219 C 8.402344 36.410156 8.117188 34.515625 8.117188 32.558594 C 8.117188 21.402344 17.144531 12.320312 28.238281 12.320312 C 39.332031 12.320312 48.359375 21.402344 48.359375 32.558594 C 48.359375 34.730469 48.015625 36.820312 47.382812 38.78125 L 51.847656 40.945312 C 52.773438 38.324219 53.277344 35.5 53.277344 32.558594 C 53.277344 18.667969 42.042969 7.371094 28.234375 7.371094 C 14.421875 7.371094 3.191406 18.667969 3.191406 32.558594 C 3.191406 35.5 3.699219 38.316406 4.625 40.945312 L 8.914062 38.867188 L 8.914062 38.199219 Z M 8.917969 38.199219 "/>
<path style=" stroke:none;fill-rule:nonzero;fill:rgb(0%,62.745098%,87.45098%);fill-opacity:1;" d="M 18.085938 37.472656 L 18.085938 32.554688 L 11.652344 32.554688 L 11.652344 40.589844 L 5.566406 43.535156 L 5.566406 47.164062 L 50.914062 47.164062 L 50.914062 43.535156 L 28.238281 32.554688 Z M 18.085938 37.472656 "/>
<path style=" stroke:none;fill-rule:nonzero;fill:rgb(0%,62.745098%,87.45098%);fill-opacity:1;" d="M 70.488281 16.792969 L 70.488281 21.277344 C 70.488281 22.160156 70.628906 22.808594 70.917969 23.234375 C 70.480469 23.621094 69.960938 23.808594 69.34375 23.808594 C 68.757812 23.808594 68.355469 23.675781 68.136719 23.40625 C 67.917969 23.136719 67.808594 22.714844 67.808594 22.140625 L 67.808594 17.347656 C 67.808594 16.730469 67.734375 16.296875 67.582031 16.054688 C 67.433594 15.808594 67.152344 15.679688 66.746094 15.679688 C 66.023438 15.679688 65.347656 16.011719 64.722656 16.671875 L 64.722656 23.664062 C 64.515625 23.703125 64.304688 23.730469 64.078125 23.742188 C 63.851562 23.753906 63.621094 23.761719 63.390625 23.761719 C 63.160156 23.761719 62.929688 23.753906 62.703125 23.742188 C 62.480469 23.730469 62.265625 23.699219 62.0625 23.664062 L 62.0625 13.480469 L 62.183594 13.335938 L 63.203125 13.335938 C 63.96875 13.335938 64.441406 13.742188 64.636719 14.570312 C 65.632812 13.707031 66.625 13.273438 67.601562 13.273438 C 68.578125 13.273438 69.308594 13.589844 69.777344 14.226562 C 70.25 14.867188 70.488281 15.722656 70.488281 16.792969 "/>
<path style=" stroke:none;fill-rule:nonzero;fill:rgb(0%,62.745098%,87.45098%);fill-opacity:1;" d="M 80.929688 19.421875 L 75.289062 19.421875 C 75.328125 20.171875 75.5 20.773438 75.808594 21.199219 C 76.113281 21.632812 76.648438 21.847656 77.414062 21.847656 C 78.203125 21.847656 79.109375 21.613281 80.136719 21.152344 C 80.53125 21.558594 80.78125 22.105469 80.890625 22.777344 C 79.800781 23.558594 78.488281 23.949219 76.964844 23.949219 C 75.519531 23.949219 74.425781 23.503906 73.683594 22.605469 C 72.941406 21.707031 72.570312 20.375 72.570312 18.601562 C 72.570312 17.777344 72.667969 17.039062 72.855469 16.371094 C 73.046875 15.707031 73.324219 15.136719 73.695312 14.667969 C 74.066406 14.195312 74.515625 13.828125 75.042969 13.566406 C 75.574219 13.304688 76.179688 13.175781 76.867188 13.175781 C 77.558594 13.175781 78.171875 13.28125 78.707031 13.492188 C 79.242188 13.707031 79.691406 14.007812 80.054688 14.398438 C 80.425781 14.789062 80.699219 15.253906 80.882812 15.785156 C 81.066406 16.316406 81.15625 16.902344 81.15625 17.53125 C 81.15625 17.875 81.136719 18.199219 81.09375 18.511719 C 81.054688 18.816406 81 19.121094 80.929688 19.421875 M 76.988281 15.105469 C 75.925781 15.105469 75.355469 15.914062 75.269531 17.53125 L 78.664062 17.53125 L 78.664062 17.289062 C 78.664062 16.628906 78.53125 16.101562 78.257812 15.707031 C 77.984375 15.300781 77.558594 15.105469 76.988281 15.105469 "/>
<path style=" stroke:none;fill-rule:nonzero;fill:rgb(0%,62.745098%,87.45098%);fill-opacity:1;" d="M 84.121094 22.429688 L 82.078125 13.601562 C 82.609375 13.382812 83.09375 13.273438 83.519531 13.273438 C 83.949219 13.273438 84.261719 13.363281 84.460938 13.546875 C 84.65625 13.730469 84.789062 14.019531 84.863281 14.402344 L 85.640625 18.1875 C 85.914062 19.53125 86.109375 20.636719 86.234375 21.5 C 86.257812 21.609375 86.3125 21.664062 86.398438 21.664062 L 87.808594 13.519531 C 88.234375 13.4375 88.761719 13.394531 89.40625 13.394531 C 90.042969 13.394531 90.566406 13.4375 90.960938 13.519531 L 92.371094 21.5 C 92.382812 21.609375 92.4375 21.664062 92.535156 21.664062 C 92.777344 20.238281 92.992188 19.078125 93.167969 18.1875 L 94.1875 13.457031 C 94.472656 13.378906 94.878906 13.335938 95.402344 13.335938 C 95.925781 13.335938 96.339844 13.40625 96.640625 13.5625 L 96.726562 13.726562 L 94.273438 23.65625 C 93.824219 23.722656 93.242188 23.761719 92.523438 23.761719 C 91.804688 23.761719 91.320312 23.679688 91.058594 23.515625 C 90.796875 23.351562 90.628906 23.003906 90.550781 22.464844 L 90.097656 19.933594 C 89.824219 18.359375 89.605469 17 89.441406 15.863281 L 89.320312 15.863281 C 89.222656 16.578125 89 17.929688 88.648438 19.917969 L 87.953125 23.65625 C 87.476562 23.722656 86.886719 23.761719 86.175781 23.761719 C 85.464844 23.761719 84.976562 23.667969 84.710938 23.492188 C 84.4375 23.320312 84.242188 22.960938 84.121094 22.429688 "/>
<path style=" stroke:none;fill-rule:nonzero;fill:rgb(0%,62.745098%,87.45098%);fill-opacity:1;" d="M 111.109375 22.429688 C 111.042969 22.671875 110.914062 22.933594 110.738281 23.210938 C 110.5625 23.484375 110.386719 23.6875 110.210938 23.828125 C 109.320312 23.71875 108.679688 23.324219 108.265625 22.652344 C 107.378906 23.515625 106.410156 23.949219 105.359375 23.949219 C 104.832031 23.949219 104.363281 23.863281 103.964844 23.691406 C 103.5625 23.523438 103.226562 23.289062 102.960938 23.003906 C 102.695312 22.714844 102.5 22.386719 102.367188 22.019531 C 102.238281 21.644531 102.171875 21.265625 102.171875 20.871094 C 102.171875 20.296875 102.269531 19.789062 102.46875 19.359375 C 102.667969 18.925781 102.941406 18.566406 103.308594 18.277344 C 103.664062 17.992188 104.089844 17.769531 104.578125 17.617188 C 105.0625 17.464844 105.585938 17.390625 106.164062 17.390625 C 106.898438 17.390625 107.46875 17.410156 107.882812 17.453125 L 107.882812 16.898438 C 107.882812 15.859375 107.378906 15.332031 106.371094 15.332031 C 105.6875 15.332031 104.648438 15.570312 103.257812 16.054688 C 102.875 15.632812 102.644531 14.992188 102.566406 14.140625 C 104.011719 13.523438 105.5 13.21875 107.042969 13.21875 C 108.0625 13.21875 108.902344 13.503906 109.558594 14.078125 C 110.214844 14.65625 110.542969 15.527344 110.542969 16.6875 L 110.542969 20.90625 C 110.539062 21.632812 110.730469 22.140625 111.109375 22.429688 M 105.957031 21.914062 C 106.636719 21.914062 107.273438 21.613281 107.875 21.011719 L 107.875 19.21875 C 107.65625 19.207031 107.445312 19.195312 107.246094 19.175781 C 107.039062 19.164062 106.84375 19.160156 106.648438 19.160156 C 106.046875 19.160156 105.589844 19.273438 105.28125 19.5 C 104.964844 19.726562 104.8125 20.097656 104.8125 20.617188 C 104.8125 21.027344 104.917969 21.351562 105.117188 21.578125 C 105.324219 21.796875 105.605469 21.914062 105.957031 21.914062 "/>
<path style=" stroke:none;fill-rule:nonzero;fill:rgb(0%,62.745098%,87.45098%);fill-opacity:1;" d="M 119.1875 14.179688 C 119.570312 13.671875 120.136719 13.378906 120.882812 13.292969 C 121.070312 13.425781 121.261719 13.632812 121.4375 13.910156 C 121.613281 14.183594 121.722656 14.433594 121.765625 14.667969 C 121.382812 14.996094 121.195312 15.566406 121.195312 16.371094 L 121.195312 22.109375 C 121.195312 23.300781 121.097656 24.292969 120.90625 25.074219 C 120.714844 25.855469 120.429688 26.480469 120.050781 26.945312 C 119.667969 27.410156 119.1875 27.738281 118.613281 27.921875 C 118.035156 28.105469 117.355469 28.195312 116.574219 28.195312 C 115.214844 28.195312 113.980469 27.964844 112.875 27.5 C 112.875 27.171875 112.941406 26.816406 113.070312 26.429688 C 113.199219 26.046875 113.363281 25.746094 113.550781 25.527344 C 114.40625 25.953125 115.332031 26.160156 116.308594 26.160156 C 117.832031 26.160156 118.597656 25.34375 118.597656 23.71875 L 118.597656 22.917969 C 117.820312 23.535156 116.984375 23.84375 116.085938 23.84375 C 114.886719 23.84375 113.980469 23.375 113.375 22.429688 C 112.765625 21.480469 112.464844 20.179688 112.464844 18.523438 C 112.464844 17.6875 112.566406 16.941406 112.777344 16.28125 C 112.992188 15.621094 113.277344 15.0625 113.636719 14.605469 C 113.992188 14.148438 114.414062 13.792969 114.894531 13.546875 C 115.375 13.304688 115.882812 13.175781 116.425781 13.175781 C 117.542969 13.167969 118.464844 13.503906 119.1875 14.179688 M 118.59375 20.722656 L 118.59375 16.054688 C 118.011719 15.503906 117.4375 15.230469 116.898438 15.230469 C 116.351562 15.230469 115.933594 15.515625 115.628906 16.089844 C 115.332031 16.664062 115.179688 17.488281 115.179688 18.558594 C 115.179688 19.628906 115.320312 20.410156 115.597656 20.914062 C 115.878906 21.414062 116.242188 21.664062 116.691406 21.664062 C 117.414062 21.664062 118.046875 21.351562 118.59375 20.722656 "/>
<path style=" stroke:none;fill-rule:nonzero;fill:rgb(0%,62.745098%,87.45098%);fill-opacity:1;" d="M 132.234375 22.429688 C 132.164062 22.671875 132.039062 22.933594 131.863281 23.210938 C 131.6875 23.484375 131.507812 23.6875 131.332031 23.828125 C 130.445312 23.71875 129.800781 23.324219 129.390625 22.652344 C 128.503906 23.515625 127.535156 23.949219 126.484375 23.949219 C 125.957031 23.949219 125.488281 23.863281 125.085938 23.691406 C 124.6875 23.523438 124.351562 23.289062 124.085938 23.003906 C 123.816406 22.714844 123.625 22.386719 123.496094 22.019531 C 123.367188 21.644531 123.300781 21.265625 123.300781 20.871094 C 123.300781 20.296875 123.398438 19.789062 123.597656 19.359375 C 123.800781 18.925781 124.078125 18.566406 124.4375 18.277344 C 124.796875 17.992188 125.222656 17.769531 125.707031 17.617188 C 126.195312 17.464844 126.722656 17.390625 127.292969 17.390625 C 128.027344 17.390625 128.597656 17.410156 129.011719 17.453125 L 129.011719 16.898438 C 129.011719 15.859375 128.507812 15.332031 127.5 15.332031 C 126.820312 15.332031 125.78125 15.570312 124.390625 16.054688 C 124.007812 15.632812 123.777344 14.992188 123.695312 14.140625 C 125.140625 13.523438 126.632812 13.21875 128.175781 13.21875 C 129.195312 13.21875 130.035156 13.503906 130.691406 14.078125 C 131.34375 14.65625 131.667969 15.527344 131.667969 16.6875 L 131.667969 20.90625 C 131.65625 21.632812 131.851562 22.140625 132.234375 22.429688 M 127.082031 21.914062 C 127.761719 21.914062 128.40625 21.613281 129 21.011719 L 129 19.21875 C 128.78125 19.207031 128.570312 19.195312 128.367188 19.175781 C 128.160156 19.164062 127.96875 19.160156 127.773438 19.160156 C 127.171875 19.160156 126.714844 19.273438 126.40625 19.5 C 126.089844 19.726562 125.9375 20.097656 125.9375 20.617188 C 125.9375 21.027344 126.042969 21.351562 126.242188 21.578125 C 126.441406 21.796875 126.722656 21.914062 127.082031 21.914062 "/>
<path style=" stroke:none;fill-rule:nonzero;fill:rgb(0%,62.745098%,87.45098%);fill-opacity:1;" d="M 137.445312 15.539062 L 137.445312 23.664062 C 137.238281 23.703125 137.027344 23.730469 136.800781 23.742188 C 136.578125 23.753906 136.347656 23.761719 136.113281 23.761719 C 135.882812 23.761719 135.652344 23.753906 135.429688 23.742188 C 135.203125 23.730469 134.980469 23.699219 134.765625 23.664062 L 134.765625 16.507812 C 134.765625 15.753906 134.457031 15.375 133.84375 15.375 L 133.574219 15.375 C 133.496094 15.074219 133.453125 14.757812 133.453125 14.429688 C 133.453125 14.128906 133.496094 13.8125 133.574219 13.480469 C 133.890625 13.457031 134.175781 13.433594 134.445312 13.40625 C 134.710938 13.390625 134.9375 13.378906 135.128906 13.378906 L 135.484375 13.378906 C 136.097656 13.378906 136.578125 13.566406 136.921875 13.953125 C 137.269531 14.335938 137.445312 14.867188 137.445312 15.539062 M 134.359375 9.492188 C 134.675781 9.3125 135.117188 9.222656 135.707031 9.222656 C 136.046875 9.222656 136.328125 9.253906 136.535156 9.300781 C 136.746094 9.355469 136.898438 9.421875 136.996094 9.496094 C 137.09375 9.570312 137.152344 9.710938 137.179688 9.917969 C 137.203125 10.125 137.21875 10.339844 137.21875 10.554688 C 137.179688 11.25 137.09375 11.636719 136.964844 11.703125 C 136.835938 11.769531 136.414062 11.835938 135.691406 11.910156 C 134.925781 11.886719 134.480469 11.78125 134.347656 11.605469 C 134.21875 11.429688 134.152344 11.078125 134.152344 10.554688 C 134.152344 10.164062 134.21875 9.808594 134.359375 9.492188 "/>
<path style=" stroke:none;fill-rule:nonzero;fill:rgb(0%,62.745098%,87.45098%);fill-opacity:1;" d="M 148.648438 16.792969 L 148.648438 21.277344 C 148.648438 22.160156 148.792969 22.808594 149.078125 23.234375 C 148.640625 23.621094 148.121094 23.808594 147.507812 23.808594 C 146.921875 23.808594 146.515625 23.675781 146.296875 23.40625 C 146.078125 23.136719 145.96875 22.714844 145.96875 22.140625 L 145.96875 17.347656 C 145.96875 16.730469 145.894531 16.296875 145.746094 16.054688 C 145.59375 15.808594 145.3125 15.679688 144.90625 15.679688 C 144.183594 15.679688 143.507812 16.011719 142.882812 16.671875 L 142.882812 23.664062 C 142.675781 23.703125 142.464844 23.730469 142.238281 23.742188 C 142.015625 23.753906 141.785156 23.761719 141.550781 23.761719 C 141.320312 23.761719 141.089844 23.753906 140.867188 23.742188 C 140.640625 23.730469 140.429688 23.699219 140.222656 23.664062 L 140.222656 13.480469 L 140.34375 13.335938 L 141.363281 13.335938 C 142.128906 13.335938 142.601562 13.742188 142.796875 14.570312 C 143.792969 13.707031 144.785156 13.273438 145.761719 13.273438 C 146.746094 13.273438 147.46875 13.589844 147.9375 14.226562 C 148.410156 14.867188 148.648438 15.722656 148.648438 16.792969 "/>
<path style=" stroke:none;fill-rule:nonzero;fill:rgb(53.72549%,54.117647%,55.294118%);fill-opacity:1;" d="M 74.332031 43.707031 L 74.332031 37.132812 C 74.332031 35.5625 73.988281 34.308594 73.300781 33.371094 C 72.609375 32.4375 71.542969 31.96875 70.105469 31.96875 C 68.683594 31.96875 67.273438 32.578125 65.875 33.808594 L 65.875 28.519531 C 65.875 27.617188 65.71875 26.980469 65.410156 26.621094 C 65.097656 26.257812 64.550781 26.074219 63.773438 26.074219 L 62.242188 26.074219 L 62.0625 26.289062 L 62.0625 47.214844 C 62.382812 47.277344 62.699219 47.3125 63.019531 47.335938 C 63.34375 47.355469 63.660156 47.367188 63.980469 47.367188 C 64.320312 47.367188 64.648438 47.355469 64.953125 47.335938 C 65.261719 47.316406 65.566406 47.277344 65.871094 47.214844 L 65.871094 36.949219 C 66.789062 35.980469 67.777344 35.5 68.839844 35.5 C 69.441406 35.5 69.851562 35.683594 70.074219 36.042969 C 70.292969 36.402344 70.402344 37.039062 70.402344 37.945312 L 70.402344 44.976562 C 70.402344 45.820312 70.558594 46.445312 70.882812 46.835938 C 71.203125 47.226562 71.792969 47.421875 72.65625 47.421875 C 73.554688 47.421875 74.328125 47.140625 74.964844 46.578125 C 74.546875 45.957031 74.332031 44.996094 74.332031 43.707031 "/>
<path style=" stroke:none;fill-rule:nonzero;fill:rgb(53.72549%,54.117647%,55.294118%);fill-opacity:1;" d="M 88.671875 33.507812 C 90.09375 34.9375 90.804688 37.007812 90.804688 39.722656 C 90.804688 40.925781 90.652344 42.019531 90.355469 42.996094 C 90.058594 43.976562 89.621094 44.800781 89.046875 45.484375 C 88.476562 46.167969 87.773438 46.695312 86.933594 47.066406 C 86.09375 47.441406 85.140625 47.625 84.085938 47.625 C 83.027344 47.625 82.078125 47.441406 81.246094 47.066406 C 80.414062 46.695312 79.714844 46.167969 79.144531 45.484375 C 78.574219 44.800781 78.144531 43.96875 77.839844 42.996094 C 77.542969 42.019531 77.390625 40.933594 77.390625 39.722656 C 77.390625 37.289062 77.972656 35.359375 79.125 33.941406 C 80.289062 32.523438 81.941406 31.8125 84.078125 31.8125 C 85.960938 31.820312 87.492188 32.382812 88.671875 33.507812 M 84.085938 34.777344 C 82.324219 34.777344 81.441406 36.429688 81.441406 39.726562 C 81.441406 43.011719 82.324219 44.648438 84.085938 44.648438 C 85.863281 44.648438 86.757812 43.011719 86.757812 39.726562 C 86.75 36.429688 85.863281 34.777344 84.085938 34.777344 "/>
<path style=" stroke:none;fill-rule:nonzero;fill:rgb(53.72549%,54.117647%,55.294118%);fill-opacity:1;" d="M 93.867188 42.320312 L 93.867188 35.714844 C 93.867188 34.464844 93.660156 33.511719 93.234375 32.847656 C 93.894531 32.285156 94.65625 32.003906 95.53125 32.003906 C 96.398438 32.003906 96.996094 32.210938 97.316406 32.621094 C 97.640625 33.035156 97.796875 33.652344 97.796875 34.480469 L 97.796875 41.511719 C 97.796875 42.378906 97.90625 42.996094 98.125 43.371094 C 98.34375 43.742188 98.757812 43.925781 99.359375 43.925781 C 100.414062 43.925781 101.40625 43.460938 102.328125 42.539062 L 102.328125 32.242188 C 102.765625 32.144531 103.410156 32.089844 104.265625 32.089844 C 105.117188 32.089844 105.78125 32.136719 106.261719 32.242188 L 106.261719 42.953125 C 106.261719 44.140625 106.539062 44.976562 107.097656 45.460938 C 107 45.820312 106.824219 46.195312 106.574219 46.578125 C 106.328125 46.964844 106.058594 47.25 105.78125 47.453125 C 104.320312 47.3125 103.308594 46.597656 102.75 45.308594 C 101.210938 46.757812 99.621094 47.484375 97.980469 47.484375 C 96.636719 47.484375 95.617188 47.011719 94.917969 46.066406 C 94.21875 45.117188 93.867188 43.871094 93.867188 42.320312 "/>
<path style=" stroke:none;fill-rule:nonzero;fill:rgb(53.72549%,54.117647%,55.294118%);fill-opacity:1;" d="M 109.109375 46.152344 C 109.128906 45.710938 109.253906 45.222656 109.484375 44.683594 C 109.71875 44.152344 109.976562 43.730469 110.28125 43.433594 C 111.863281 44.292969 113.253906 44.726562 114.449219 44.726562 C 115.113281 44.726562 115.648438 44.597656 116.054688 44.335938 C 116.460938 44.074219 116.667969 43.726562 116.667969 43.277344 C 116.667969 42.574219 116.125 42.015625 115.046875 41.585938 L 113.363281 40.949219 C 110.839844 40.027344 109.582031 38.550781 109.582031 36.515625 C 109.582031 35.792969 109.71875 35.140625 109.984375 34.5625 C 110.257812 33.988281 110.632812 33.496094 111.125 33.085938 C 111.613281 32.675781 112.203125 32.359375 112.882812 32.132812 C 113.5625 31.914062 114.320312 31.800781 115.160156 31.800781 C 115.542969 31.800781 115.960938 31.832031 116.4375 31.894531 C 116.902344 31.953125 117.382812 32.039062 117.863281 32.152344 C 118.34375 32.261719 118.804688 32.390625 119.242188 32.53125 C 119.679688 32.671875 120.0625 32.824219 120.386719 32.980469 C 120.386719 33.484375 120.28125 34.007812 120.085938 34.550781 C 119.886719 35.097656 119.621094 35.5 119.28125 35.761719 C 117.699219 35.058594 116.328125 34.703125 115.171875 34.703125 C 114.648438 34.703125 114.242188 34.832031 113.945312 35.082031 C 113.648438 35.335938 113.496094 35.664062 113.496094 36.066406 C 113.496094 36.691406 113.992188 37.1875 114.996094 37.546875 L 116.824219 38.210938 C 118.144531 38.675781 119.128906 39.308594 119.765625 40.113281 C 120.402344 40.921875 120.726562 41.855469 120.726562 42.917969 C 120.726562 44.347656 120.195312 45.492188 119.132812 46.347656 C 118.070312 47.203125 116.550781 47.628906 114.570312 47.628906 C 112.628906 47.628906 110.804688 47.140625 109.109375 46.152344 "/>
<path style=" stroke:none;fill-rule:nonzero;fill:rgb(53.72549%,54.117647%,55.294118%);fill-opacity:1;" d="M 134.941406 40.992188 L 126.660156 40.992188 C 126.722656 42.097656 126.976562 42.96875 127.425781 43.601562 C 127.875 44.238281 128.660156 44.554688 129.785156 44.554688 C 130.945312 44.554688 132.273438 44.214844 133.777344 43.53125 C 134.351562 44.132812 134.722656 44.929688 134.886719 45.914062 C 133.289062 47.0625 131.371094 47.636719 129.128906 47.636719 C 127.007812 47.636719 125.402344 46.976562 124.308594 45.65625 C 123.222656 44.34375 122.675781 42.378906 122.675781 39.789062 C 122.675781 38.578125 122.816406 37.492188 123.09375 36.515625 C 123.375 35.535156 123.78125 34.703125 124.324219 34.007812 C 124.863281 33.3125 125.519531 32.773438 126.304688 32.394531 C 127.082031 32.015625 127.972656 31.820312 128.976562 31.820312 C 129.996094 31.820312 130.894531 31.980469 131.671875 32.285156 C 132.453125 32.597656 133.113281 33.042969 133.65625 33.609375 C 134.195312 34.1875 134.601562 34.863281 134.871094 35.644531 C 135.136719 36.429688 135.277344 37.285156 135.277344 38.210938 C 135.277344 38.714844 135.246094 39.195312 135.183594 39.648438 C 135.117188 40.101562 135.039062 40.554688 134.941406 40.992188 M 129.144531 34.65625 C 127.585938 34.65625 126.746094 35.839844 126.625 38.21875 L 131.605469 38.21875 L 131.605469 37.859375 C 131.605469 36.894531 131.40625 36.117188 131.003906 35.535156 C 130.609375 34.949219 129.992188 34.65625 129.144531 34.65625 "/>
<path style=" stroke:none;fill-rule:nonzero;fill:rgb(53.72549%,54.117647%,55.294118%);fill-opacity:1;" d="M 137.25 46.152344 C 137.269531 45.710938 137.398438 45.222656 137.628906 44.683594 C 137.859375 44.152344 138.121094 43.730469 138.421875 43.433594 C 140.003906 44.292969 141.394531 44.726562 142.589844 44.726562 C 143.253906 44.726562 143.789062 44.597656 144.195312 44.335938 C 144.609375 44.074219 144.808594 43.726562 144.808594 43.277344 C 144.808594 42.574219 144.269531 42.015625 143.1875 41.585938 L 141.503906 40.949219 C 138.984375 40.027344 137.726562 38.550781 137.726562 36.515625 C 137.726562 35.792969 137.859375 35.140625 138.132812 34.5625 C 138.40625 33.988281 138.78125 33.496094 139.273438 33.085938 C 139.761719 32.675781 140.347656 32.359375 141.03125 32.132812 C 141.710938 31.914062 142.46875 31.800781 143.308594 31.800781 C 143.683594 31.800781 144.109375 31.832031 144.585938 31.894531 C 145.050781 31.953125 145.53125 32.039062 146.011719 32.152344 C 146.492188 32.261719 146.953125 32.390625 147.390625 32.53125 C 147.828125 32.671875 148.210938 32.824219 148.53125 32.980469 C 148.53125 33.484375 148.4375 34.007812 148.234375 34.550781 C 148.035156 35.097656 147.769531 35.5 147.425781 35.761719 C 145.847656 35.058594 144.476562 34.703125 143.3125 34.703125 C 142.792969 34.703125 142.382812 34.832031 142.085938 35.082031 C 141.789062 35.335938 141.636719 35.664062 141.636719 36.066406 C 141.636719 36.691406 142.136719 37.1875 143.136719 37.546875 L 144.96875 38.210938 C 146.285156 38.675781 147.269531 39.308594 147.90625 40.113281 C 148.546875 40.921875 148.867188 41.855469 148.867188 42.917969 C 148.867188 44.347656 148.339844 45.492188 147.277344 46.347656 C 146.21875 47.203125 144.695312 47.628906 142.710938 47.628906 C 140.769531 47.628906 138.945312 47.140625 137.25 46.152344 "/>
<path style=" stroke:none;fill-rule:nonzero;fill:rgb(53.72549%,54.117647%,55.294118%);fill-opacity:1;" d="M 157.804688 12.589844 C 157.804688 14.390625 156.394531 15.808594 154.566406 15.808594 C 152.753906 15.808594 151.304688 14.390625 151.304688 12.589844 C 151.304688 10.824219 152.75 9.40625 154.566406 9.40625 C 156.394531 9.40625 157.804688 10.824219 157.804688 12.589844 Z M 152.113281 12.589844 C 152.113281 14.007812 153.152344 15.132812 154.578125 15.132812 C 155.96875 15.132812 156.988281 14.007812 156.988281 12.605469 C 156.988281 11.1875 155.96875 10.046875 154.558594 10.046875 C 153.15625 10.046875 152.113281 11.1875 152.113281 12.589844 Z M 154.0625 14.257812 L 153.328125 14.257812 L 153.328125 11.074219 C 153.617188 11.011719 154.019531 10.976562 154.542969 10.976562 C 155.136719 10.976562 155.410156 11.074219 155.640625 11.207031 C 155.816406 11.34375 155.953125 11.597656 155.953125 11.90625 C 155.953125 12.253906 155.683594 12.527344 155.296875 12.644531 L 155.296875 12.679688 C 155.605469 12.796875 155.773438 13.027344 155.871094 13.457031 C 155.96875 13.9375 156.023438 14.136719 156.101562 14.25 L 155.3125 14.25 C 155.214844 14.136719 155.160156 13.839844 155.0625 13.476562 C 155.003906 13.125 154.816406 12.96875 154.40625 12.96875 L 154.0625 12.96875 Z M 154.078125 12.453125 L 154.425781 12.453125 C 154.832031 12.453125 155.160156 12.320312 155.160156 11.988281 C 155.160156 11.695312 154.949219 11.507812 154.488281 11.507812 C 154.292969 11.507812 154.160156 11.527344 154.078125 11.542969 Z M 154.078125 12.453125 "/>
</g>
</svg>
